<svg xmlns="http://www.w3.org/2000/svg" version="1.1" xmlns:xlink="http://www.w3.org/1999/xlink" xmlns:svgjs="http://svgjs.dev/svgjs" width="1500" height="1500" viewBox="0 0 1500 1500"><rect width="1500" height="1500" fill="#ffffff"></rect><g transform="matrix(0.29308323563892147,0,0,0.29308323563892147,529.3405711726097,248.38709677419342)"><svg viewBox="0 0 109 248" data-background-color="#000000" preserveAspectRatio="xMidYMid meet" height="3412" width="1500" xmlns="http://www.w3.org/2000/svg" xmlns:xlink="http://www.w3.org/1999/xlink"><g id="tight-bounds" transform="matrix(1,0,0,1,0.21000457089138536,0.4000000000000057)"><svg viewBox="0 0 108.57999085821722 247.2" height="247.2" width="108.57999085821722"><g><svg viewBox="0 0 210.12 478.37233719999995" height="247.2" width="108.57999085821722"><g transform="matrix(1,0,0,1,0,231.1723372)"><svg viewBox="0 0 210.12 247.2" height="247.2" width="210.12"><g id="textblocktransform"><svg viewBox="0 0 210.12 247.2" height="247.2" width="210.12" id="textblock"><g><svg viewBox="0 0 210.12 247.2" height="247.2" width="210.12"><g transform="matrix(1,0,0,1,0,0)"><svg width="210.12" viewBox="-5.65 -37.95 39.1 46.00000000000001" height="247.2" data-palette-color="url(#9384e983-88bf-4aa0-910c-446a6247445f)"></svg></g></svg></g></svg></g></svg></g><g transform="matrix(1,0,0,1,40.13292000000001,0)"><svg viewBox="0 0 129.85415999999998 172.81435" height="172.81435" width="129.85415999999998"><g><svg xmlns="http://www.w3.org/2000/svg" xmlns:xlink="http://www.w3.org/1999/xlink" version="1.1" x="7.999999999999993" y="0" viewBox="152 102.5 196 297.5" style="enable-background:new 0 0 500 500;" xml:space="preserve" height="172.81435" width="113.85416" class="icon-icon-0" data-fill-palette-color="accent" id="icon-0"></svg></g></svg></g><g></g></svg></g><defs></defs><mask id="2cd83935-40c2-496f-a0ba-6b8367918368"><g id="SvgjsG6874"><svg viewBox="0 0 108.57999085821722 247.2" height="247.2" width="108.57999085821722"><g><svg viewBox="0 0 210.12 478.37233719999995" height="247.2" width="108.57999085821722"><g transform="matrix(1,0,0,1,0,231.1723372)"><svg viewBox="0 0 210.12 247.2" height="247.2" width="210.12"><g id="SvgjsG6873"><svg viewBox="0 0 210.12 247.2" height="247.2" width="210.12" id="SvgjsSvg6872"><g><svg viewBox="0 0 210.12 247.2" height="247.2" width="210.12"><g transform="matrix(1,0,0,1,0,0)"><svg width="210.12" viewBox="-5.65 -37.95 39.1 46.00000000000001" height="247.2" data-palette-color="url(#9384e983-88bf-4aa0-910c-446a6247445f)"><path d="M20.6-20.7L20.6-20.7 12.85-20.7Q10-15.3 6.25-7.35L6.25-7.35Q6.1-6.9 5.78-6.13 5.45-5.35 4.38-3.23 3.3-1.1 2.13 0.75 0.95 2.6-0.8 4.63-2.55 6.65-4.35 7.75L-4.35 7.75Q-4.8 8.05-5.15 8.05L-5.15 8.05Q-5.65 8.05-5.65 7.4L-5.65 7.4Q-5.65 7-5.5 6.4-5.35 5.8-5.2 5.4L-5.2 5.4-5.05 5.05Q-2.65-0.85 8.65-20.65L8.65-20.65 6.55-20.65Q5.8-20.65 5.8-21.1L5.8-21.1Q5.8-21.45 6.18-21.78 6.55-22.1 6.95-22.1L6.95-22.1 9.5-22.1 14.45-30.55Q15.65-32.75 15.65-34.35L15.65-34.35Q15.65-35.15 15.35-35.68 15.05-36.2 14.8-36.35L14.8-36.35 14.5-36.5Q14.05-36.75 14.05-37.05L14.05-37.05Q14.05-37.3 14.33-37.48 14.6-37.65 14.8-37.65L14.8-37.65Q19.85-37.95 25.3-37.95L25.3-37.95Q29.85-37.95 32.65-37.7L32.65-37.7Q33.45-37.7 33.45-37.05L33.45-37.05Q33.45-36.8 33.3-36.5L33.3-36.5Q31.55-32.4 29.95-30L29.95-30Q29.8-29.75 29.35-29.75L29.35-29.75Q28.95-29.75 28.95-30.35L28.95-30.35Q29.3-31.4 29.3-32.65L29.3-32.65Q29.3-36.55 25.3-36.55L25.3-36.55Q22.5-36.55 21.45-35.15L21.45-35.15Q18.8-31.8 13.6-22.1L13.6-22.1Q14.95-22.1 17.57-22.13 20.2-22.15 21.45-22.15L21.45-22.15Q21.85-22.15 21.95-22.05L21.95-22.05Q22-22 22-21.9L22-21.9Q22-21.55 21.58-21.15 21.15-20.75 20.6-20.7Z" opacity="1" transform="matrix(1,0,0,1,0,0)" fill="white" class="wordmark-text-0" id="SvgjsPath6871"></path></svg></g></svg></g></svg></g></svg></g><g transform="matrix(1,0,0,1,40.13292000000001,0)"><svg viewBox="0 0 129.85415999999998 172.81435" height="172.81435" width="129.85415999999998"><g><svg xmlns="http://www.w3.org/2000/svg" xmlns:xlink="http://www.w3.org/1999/xlink" version="1.1" x="7.999999999999993" y="0" viewBox="152 102.5 196 297.5" style="enable-background:new 0 0 500 500;" xml:space="preserve" height="172.81435" width="113.85416" class="icon-icon-0" data-fill-palette-color="accent" id="SvgjsSvg6870"><circle cx="193" cy="141" r="39" fill="black"></circle><circle cx="307" cy="141" r="39" fill="black"></circle><circle cx="193" cy="250" r="39" fill="black"></circle><path d="M307 291C284.4 291 266 272.6 266 250S284.4 209 307 209 348 227.4 348 250 329.6 291 307 291M307 214C287.1 214 271 230.1 271 250S287.1 286 307 286 343 269.9 343 250 326.9 214 307 214" fill="black"></path><path d="M193 400C170.4 400 152 381.6 152 359S170.4 318 193 318 234 336.4 234 359 215.6 400 193 400M193 323C173.1 323 157 339.1 157 359S173.1 395 193 395 229 378.9 229 359 212.9 323 193 323" fill="black"></path><path d="M307 400C284.4 400 266 381.6 266 359S284.4 318 307 318 348 336.4 348 359 329.6 400 307 400M307 323C287.1 323 271 339.1 271 359S287.1 395 307 395 343 378.9 343 359 326.9 323 307 323" fill="black"></path></svg></g></svg></g><g></g></svg></g><defs><mask></mask></defs></svg><rect width="108.57999085821722" height="247.2" fill="black" stroke="none" visibility="hidden"></rect></g></mask><linearGradient x1="0.054" x2="0.941" y1="0.5" y2="0.5" id="9384e983-88bf-4aa0-910c-446a6247445f"><stop stop-color="#864d25" offset="0"></stop><stop stop-color="#f1c4b3" offset="0.498"></stop><stop stop-color="#864d25" offset="1"></stop></linearGradient><rect width="108.57999085821722" height="247.2" fill="#000000" mask="url(#2cd83935-40c2-496f-a0ba-6b8367918368)" data-fill-palette-color="primary"></rect><mask id="0c0de3ac-89c8-4e7b-9d73-0bccd5397c8c"><g id="SvgjsG6893"><svg viewBox="0 0 108.57999085821722 247.2" height="247.2" width="108.57999085821722"><g><svg viewBox="0 0 210.12 478.37233719999995" height="247.2" width="108.57999085821722"><g transform="matrix(1,0,0,1,0,231.1723372)"><svg viewBox="0 0 210.12 247.2" height="247.2" width="210.12"><g id="SvgjsG6892"><svg viewBox="0 0 210.12 247.2" height="247.2" width="210.12" id="SvgjsSvg6891"><g><svg viewBox="0 0 210.12 247.2" height="247.2" width="210.12"><g transform="matrix(1,0,0,1,0,0)"><svg width="210.12" viewBox="-5.65 -37.95 39.1 46.00000000000001" height="247.2" data-palette-color="url(#9384e983-88bf-4aa0-910c-446a6247445f)"></svg></g></svg></g></svg></g></svg></g><g transform="matrix(1,0,0,1,40.13292000000001,0)"><svg viewBox="0 0 129.85415999999998 172.81435" height="172.81435" width="129.85415999999998"><g><svg xmlns="http://www.w3.org/2000/svg" xmlns:xlink="http://www.w3.org/1999/xlink" version="1.1" x="7.999999999999993" y="0" viewBox="152 102.5 196 297.5" style="enable-background:new 0 0 500 500;" xml:space="preserve" height="172.81435" width="113.85416" class="icon-icon-0" data-fill-palette-color="accent" id="SvgjsSvg6890"><circle cx="193" cy="141" r="39" fill="white"></circle><circle cx="307" cy="141" r="39" fill="white"></circle><circle cx="193" cy="250" r="39" fill="white"></circle><path d="M307 291C284.4 291 266 272.6 266 250S284.4 209 307 209 348 227.4 348 250 329.6 291 307 291M307 214C287.1 214 271 230.1 271 250S287.1 286 307 286 343 269.9 343 250 326.9 214 307 214" fill="white"></path><path d="M193 400C170.4 400 152 381.6 152 359S170.4 318 193 318 234 336.4 234 359 215.6 400 193 400M193 323C173.1 323 157 339.1 157 359S173.1 395 193 395 229 378.9 229 359 212.9 323 193 323" fill="white"></path><path d="M307 400C284.4 400 266 381.6 266 359S284.4 318 307 318 348 336.4 348 359 329.6 400 307 400M307 323C287.1 323 271 339.1 271 359S287.1 395 307 395 343 378.9 343 359 326.9 323 307 323" fill="white"></path></svg></g></svg></g><g></g></svg></g><defs><mask></mask></defs><mask><g id="SvgjsG6889"><svg viewBox="0 0 108.57999085821722 247.2" height="247.2" width="108.57999085821722"><g><svg viewBox="0 0 210.12 478.37233719999995" height="247.2" width="108.57999085821722"><g transform="matrix(1,0,0,1,0,231.1723372)"><svg viewBox="0 0 210.12 247.2" height="247.2" width="210.12"><g id="SvgjsG6888"><svg viewBox="0 0 210.12 247.2" height="247.2" width="210.12" id="SvgjsSvg6887"><g><svg viewBox="0 0 210.12 247.2" height="247.2" width="210.12"><g transform="matrix(1,0,0,1,0,0)"><svg width="210.12" viewBox="-5.65 -37.95 39.1 46.00000000000001" height="247.2" data-palette-color="url(#9384e983-88bf-4aa0-910c-446a6247445f)"><path d="M20.6-20.7L20.6-20.7 12.85-20.7Q10-15.3 6.25-7.35L6.25-7.35Q6.1-6.9 5.78-6.13 5.45-5.35 4.38-3.23 3.3-1.1 2.13 0.75 0.95 2.6-0.8 4.63-2.55 6.65-4.35 7.75L-4.35 7.75Q-4.8 8.05-5.15 8.05L-5.15 8.05Q-5.65 8.05-5.65 7.4L-5.65 7.4Q-5.65 7-5.5 6.4-5.35 5.8-5.2 5.4L-5.2 5.4-5.05 5.05Q-2.65-0.85 8.65-20.65L8.65-20.65 6.55-20.65Q5.8-20.65 5.8-21.1L5.8-21.1Q5.8-21.45 6.18-21.78 6.55-22.1 6.95-22.1L6.95-22.1 9.5-22.1 14.45-30.55Q15.65-32.75 15.65-34.35L15.65-34.35Q15.65-35.15 15.35-35.68 15.05-36.2 14.8-36.35L14.8-36.35 14.5-36.5Q14.05-36.75 14.05-37.05L14.05-37.05Q14.05-37.3 14.33-37.48 14.6-37.65 14.8-37.65L14.8-37.65Q19.85-37.95 25.3-37.95L25.3-37.95Q29.85-37.95 32.65-37.7L32.65-37.7Q33.45-37.7 33.45-37.05L33.45-37.05Q33.45-36.8 33.3-36.5L33.3-36.5Q31.55-32.4 29.95-30L29.95-30Q29.8-29.75 29.35-29.75L29.35-29.75Q28.95-29.75 28.95-30.35L28.95-30.35Q29.3-31.4 29.3-32.65L29.3-32.65Q29.3-36.55 25.3-36.55L25.3-36.55Q22.5-36.55 21.45-35.15L21.45-35.15Q18.8-31.8 13.6-22.1L13.6-22.1Q14.95-22.1 17.57-22.13 20.2-22.15 21.45-22.15L21.45-22.15Q21.85-22.15 21.95-22.05L21.95-22.05Q22-22 22-21.9L22-21.9Q22-21.55 21.58-21.15 21.15-20.75 20.6-20.7Z" opacity="1" transform="matrix(1,0,0,1,0,0)" fill="black" class="wordmark-text-0" id="SvgjsPath6886"></path></svg></g></svg></g></svg></g></svg></g><g transform="matrix(1,0,0,1,40.13292000000001,0)"><svg viewBox="0 0 129.85415999999998 172.81435" height="172.81435" width="129.85415999999998"><g><svg xmlns="http://www.w3.org/2000/svg" xmlns:xlink="http://www.w3.org/1999/xlink" version="1.1" x="7.999999999999993" y="0" viewBox="152 102.5 196 297.5" style="enable-background:new 0 0 500 500;" xml:space="preserve" height="172.81435" width="113.85416" class="icon-icon-0" data-fill-palette-color="accent" id="SvgjsSvg6885"><circle cx="193" cy="141" r="39" fill="black"></circle><circle cx="307" cy="141" r="39" fill="black"></circle><circle cx="193" cy="250" r="39" fill="black"></circle><path d="M307 291C284.4 291 266 272.6 266 250S284.4 209 307 209 348 227.4 348 250 329.6 291 307 291M307 214C287.1 214 271 230.1 271 250S287.1 286 307 286 343 269.9 343 250 326.9 214 307 214" fill="black"></path><path d="M193 400C170.4 400 152 381.6 152 359S170.4 318 193 318 234 336.4 234 359 215.6 400 193 400M193 323C173.1 323 157 339.1 157 359S173.1 395 193 395 229 378.9 229 359 212.9 323 193 323" fill="black"></path><path d="M307 400C284.4 400 266 381.6 266 359S284.4 318 307 318 348 336.4 348 359 329.6 400 307 400M307 323C287.1 323 271 339.1 271 359S287.1 395 307 395 343 378.9 343 359 326.9 323 307 323" fill="black"></path></svg></g></svg></g><g></g></svg></g><defs><mask></mask></defs></svg><rect width="108.57999085821722" height="247.2" fill="black" stroke="none" visibility="hidden"></rect></g></mask></svg><rect width="108.57999085821722" height="247.2" fill="black" stroke="none" visibility="hidden"></rect></g></mask><linearGradient x1="0.054" x2="0.941" y1="0.5" y2="0.5" id="680626cd-159b-4f61-b223-6ebea54a47c0"><stop stop-color="#864d25" offset="0"></stop><stop stop-color="#f1c4b3" offset="0.498"></stop><stop stop-color="#864d25" offset="1"></stop></linearGradient><rect width="108.57999085821722" height="247.2" fill="#000000" mask="url(#0c0de3ac-89c8-4e7b-9d73-0bccd5397c8c)" data-fill-palette-color="accent"></rect></svg><rect width="108.57999085821722" height="247.2" fill="none" stroke="none" visibility="hidden"></rect></g></svg></g></svg>